<?xml version="1.0" encoding="UTF-8" standalone="no"?>
<!-- Created with Inkscape (http://www.inkscape.org/) -->

<svg
   xmlns:dc="http://purl.org/dc/elements/1.1/"
   xmlns:cc="http://creativecommons.org/ns#"
   xmlns:rdf="http://www.w3.org/1999/02/22-rdf-syntax-ns#"
   xmlns:svg="http://www.w3.org/2000/svg"
   xmlns="http://www.w3.org/2000/svg"
   xmlns:sodipodi="http://sodipodi.sourceforge.net/DTD/sodipodi-0.dtd"
   xmlns:inkscape="http://www.inkscape.org/namespaces/inkscape"
   width="11.288889mm"
   height="11.288889mm"
   viewBox="0 0 40 40"
   id="svg4599"
   version="1.1"
   inkscape:version="0.91 r13725"
   sodipodi:docname="some-icons.svg">
  <defs
     id="defs4601" />
  <sodipodi:namedview
     id="base"
     pagecolor="#ffffff"
     bordercolor="#666666"
     borderopacity="1.0"
     inkscape:pageopacity="0.0"
     inkscape:pageshadow="2"
     inkscape:zoom="1.4"
     inkscape:cx="427.92468"
     inkscape:cy="-95.158844"
     inkscape:document-units="px"
     inkscape:current-layer="layer1"
     showgrid="false"
     fit-margin-top="0"
     fit-margin-left="0"
     fit-margin-right="0"
     fit-margin-bottom="0" />
  <metadata
     id="metadata4604">
    <rdf:RDF>
      <cc:Work
         rdf:about="">
        <dc:format>image/svg+xml</dc:format>
        <dc:type
           rdf:resource="http://purl.org/dc/dcmitype/StillImage" />
        <dc:title></dc:title>
      </cc:Work>
    </rdf:RDF>
  </metadata>
  <g
     inkscape:label="Layer 1"
     inkscape:groupmode="layer"
     id="layer1"
     transform="translate(-31.345671,-460.93363)">
    <path
       d="m 55.630671,480.94113 -2.8025,0 c 0,4.48 0,9.9925 0,9.9925 l -4.1525,0 c 0,0 0,-5.45875 0,-9.9925 l -1.975,0 0,-3.53 1.975,0 0,-2.285 c 0,-1.63375 0.7762,-4.1925 4.19,-4.1925 l 3.0762,0.0125 0,3.4275 c 0,0 -1.87,0 -2.2325,0 -0.3637,0 -0.8812,0.1825 -0.8812,0.9625 l 0,2.075 3.1662,0 -0.3637,3.53 z m -24.285,-20.0075 0,40 40,0 0,-40 -40,0"
       style="fill:#3b5aa5;fill-opacity:1;fill-rule:nonzero;stroke:none"
       id="path1062"
       inkscape:connector-curvature="0" />
    <path
       d="m 119.05437,476.85613 c 0.01,0.17625 0.013,0.3525 0.013,0.53 0,5.4225 -4.1275,11.675 -11.675,11.675 -2.3175,0 -4.4737,-0.67875 -6.29,-1.84375 0.3225,0.04 0.6488,0.0562 0.9788,0.0562 1.9237,0 3.6912,-0.65375 5.095,-1.755 -1.7938,-0.0312 -3.31,-1.21875 -3.8313,-2.84875 0.25,0.0488 0.5063,0.0725 0.7713,0.0725 0.375,0 0.7375,-0.0487 1.08,-0.14375 -1.875,-0.37625 -3.29,-2.03625 -3.29,-4.02375 0,-0.0163 0,-0.0337 0,-0.0513 0.5537,0.3075 1.1862,0.49375 1.8587,0.5125 -1.1012,-0.73375 -1.825,-1.99125 -1.825,-3.415 0,-0.7525 0.2025,-1.455 0.555,-2.0625 2.0225,2.4825 5.0475,4.11625 8.4575,4.28625 -0.07,-0.3 -0.1062,-0.6125 -0.1062,-0.935 0,-2.265 1.8375,-4.10125 4.1037,-4.10125 1.1788,0 2.2463,0.4975 2.995,1.29375 0.9338,-0.1825 1.8125,-0.525 2.6063,-0.99375 -0.3075,0.9575 -0.9575,1.7625 -1.805,2.26875 0.83,-0.0975 1.6212,-0.3175 2.3562,-0.645 -0.5487,0.8225 -1.245,1.545 -2.0475,2.12375 z m -27.952499,-15.9225 0,40 39.999999,0 0,-40 -39.999999,0"
       style="fill:#52ade5;fill-opacity:1;fill-rule:nonzero;stroke:none"
       id="path1064"
       inkscape:connector-curvature="0" />
    <path
       d="m 172.05687,479.46363 0,-0.0412 c -0.01,0.015 -0.019,0.03 -0.029,0.0412 l 0.029,0"
       style="fill:#2d69a1;fill-opacity:1;fill-rule:nonzero;stroke:none"
       id="path1066"
       inkscape:connector-curvature="0" />
    <path
       d="m 180.85817,490.49238 -4.2875,0 0,-6.9 c 0,-1.73375 -0.62,-2.9175 -2.1725,-2.9175 -1.1838,0 -1.89,0.80125 -2.2,1.57 -0.1138,0.27625 -0.1413,0.65875 -0.1413,1.045 l 0,7.2025 -4.2862,0 c 0,0 0.055,-11.6875 0,-12.89625 l 4.2862,0 0,1.82625 c 0.5713,-0.87875 1.5888,-2.12875 3.8638,-2.12875 2.82,0 4.9375,1.84375 4.9375,5.805 l 0,7.39375 z m -17.6038,-14.65625 -0.029,0 c -1.4375,0 -2.3675,-0.99375 -2.3675,-2.22875 0,-1.2675 0.9588,-2.23125 2.4238,-2.23125 1.4675,0 2.3712,0.96375 2.3975,2.23125 0,1.235 -0.93,2.22875 -2.425,2.22875 z m 2.145,14.65625 -4.2887,0 0,-12.89625 4.2887,0 0,12.89625 z m -14.5412,-29.55875 0,40 40,0 0,-40 -40,0"
       style="fill:#2d69a1;fill-opacity:1;fill-rule:nonzero;stroke:none"
       id="path1068"
       inkscape:connector-curvature="0" />
    <path
       d="m 415.51812,474.52488 c -1.50375,-1.325 -3.47875,-2.13125 -5.64,-2.13125 -0.6925,0 -1.36625,0.085 -2.01125,0.24125 0.1275,0.16875 1.73125,2.3 3.19125,4.98375 3.2225,-1.20875 4.43875,-3.06 4.46,-3.09375"
       style="fill:#f03191;fill-opacity:1;fill-rule:nonzero;stroke:none"
       id="path1070"
       inkscape:connector-curvature="0" />
    <path
       d="m 403.52562,486.64113 c 0,-10e-4 -10e-4,-10e-4 -10e-4,-0.004 l 0,0 c 0,0 10e-4,0.002 10e-4,0.004"
       style="fill:#f03191;fill-opacity:1;fill-rule:nonzero;stroke:none"
       id="path1072"
       inkscape:connector-curvature="0" />
    <path
       d="m 410.46937,480.99988 c 0.1125,-0.035 0.2225,-0.0688 0.3375,-0.1 -0.215,-0.48625 -0.45,-0.975 -0.69375,-1.4525 -4.3975,1.315 -8.61625,1.22 -8.7675,1.2175 -0.002,0.0888 -0.007,0.17875 -0.007,0.26875 0,2.1925 0.82875,4.1925 2.18625,5.70375 10e-4,-0.005 2.34,-4.14875 6.945,-5.6375"
       style="fill:#f03191;fill-opacity:1;fill-rule:nonzero;stroke:none"
       id="path1074"
       inkscape:connector-curvature="0" />
    <path
       d="m 407.83312,472.64238 c -0.01,0.002 -0.02,0.005 -0.0275,0.007 0.015,-0.002 0.025,-0.005 0.025,-0.005 l 0.002,-0.002"
       style="fill:#f03191;fill-opacity:1;fill-rule:nonzero;stroke:none"
       id="path1076"
       inkscape:connector-curvature="0" />
    <path
       d="m 409.40562,478.13113 c -1.4775,-2.6275 -3.0575,-4.76875 -3.1725,-4.92 -2.38,1.12375 -4.1575,3.31875 -4.71125,5.9625 0.225,0.005 3.78375,0.0462 7.88375,-1.0425"
       style="fill:#f03191;fill-opacity:1;fill-rule:nonzero;stroke:none"
       id="path1078"
       inkscape:connector-curvature="0" />
    <path
       d="m 404.62937,487.66738 c 0,0 0.005,-0.01 0.005,-0.0125 -0.0625,-0.0487 -0.13375,-0.085 -0.195,-0.13625 0.1125,0.09 0.19,0.14875 0.19,0.14875"
       style="fill:#f03191;fill-opacity:1;fill-rule:nonzero;stroke:none"
       id="path1080"
       inkscape:connector-curvature="0" />
    <path
       d="m 419.67312,482.94738 c -0.12875,0.6425 -0.32625,1.275 -0.5825,1.88 -0.25,0.59125 -0.56,1.165 -0.92125,1.7 -0.35875,0.52875 -0.76875,1.025 -1.22,1.47875 -0.4525,0.4525 -0.95,0.8625 -1.48,1.21875 -0.535,0.36125 -1.10625,0.67125 -1.69875,0.9225 -0.60375,0.25625 -1.23625,0.45125 -1.88,0.58375 -0.6575,0.13375 -1.335,0.2025 -2.0125,0.2025 -0.6775,0 -1.35375,-0.0688 -2.01375,-0.2025 -0.6425,-0.1325 -1.27375,-0.3275 -1.88,-0.58375 -0.59,-0.25125 -1.16375,-0.56125 -1.69875,-0.9225 -0.5275,-0.35625 -1.025,-0.76625 -1.48,-1.21875 -0.45125,-0.45375 -0.86125,-0.95 -1.2175,-1.47875 -0.36125,-0.535 -0.67125,-1.10875 -0.92375,-1.7 -0.25625,-0.605 -0.45125,-1.2375 -0.5825,-1.88 -0.135,-0.65625 -0.20375,-1.335 -0.20375,-2.01375 0,-0.67625 0.0687,-1.355 0.20375,-2.01125 0.13125,-0.6425 0.32625,-1.2775 0.5825,-1.88 0.2525,-0.59375 0.5625,-1.165 0.92375,-1.7 0.35625,-0.52875 0.76625,-1.0275 1.2175,-1.47875 0.455,-0.4525 0.9525,-0.8625 1.48,-1.22125 0.535,-0.36125 1.10875,-0.67125 1.69875,-0.9225 0.60625,-0.25375 1.2375,-0.45125 1.88,-0.58125 0.66,-0.13625 1.33625,-0.205 2.01375,-0.205 0.6775,0 1.355,0.0688 2.0125,0.205 0.64375,0.13 1.27625,0.3275 1.88,0.58125 0.5925,0.25125 1.16375,0.56125 1.69875,0.9225 0.53,0.35875 1.0275,0.76875 1.48,1.22125 0.45125,0.45125 0.86125,0.95 1.22,1.47875 0.36125,0.535 0.67125,1.10625 0.92125,1.7 0.25625,0.6025 0.45375,1.2375 0.5825,1.88 0.1375,0.65625 0.205,1.335 0.205,2.01125 0,0.67875 -0.0675,1.3575 -0.205,2.01375 z m -29.795,-22.01375 0,40 40,0 0,-40 -40,0"
       style="fill:#f03191;fill-opacity:1;fill-rule:nonzero;stroke:none"
       id="path1082"
       inkscape:connector-curvature="0" />
    <path
       d="m 411.71437,478.88988 c 0.2,0.40625 0.39125,0.82125 0.56875,1.23875 0.0638,0.14875 0.125,0.295 0.18375,0.44125 2.93375,-0.36875 5.825,0.25125 5.95,0.27875 -0.0225,-2.02625 -0.745,-3.885 -1.94375,-5.34 -0.015,0.025 -1.385,2.005 -4.75875,3.38125"
       style="fill:#f03191;fill-opacity:1;fill-rule:nonzero;stroke:none"
       id="path1084"
       inkscape:connector-curvature="0" />
    <path
       d="m 411.33187,482.33238 c -4.96625,1.72875 -6.63375,5.18875 -6.6975,5.3225 1.44875,1.13 3.26375,1.81875 5.24375,1.81875 1.1825,0 2.31,-0.23875 3.33375,-0.67625 -0.125,-0.7475 -0.62375,-3.36125 -1.82375,-6.48375 -0.02,0.006 -0.0375,0.0113 -0.0563,0.0188"
       style="fill:#f03191;fill-opacity:1;fill-rule:nonzero;stroke:none"
       id="path1086"
       inkscape:connector-curvature="0" />
    <path
       d="m 412.98937,481.91738 c 1.1175,3.07875 1.575,5.58375 1.66,6.09875 1.91875,-1.29375 3.28125,-3.3475 3.66,-5.725 -0.17625,-0.0588 -2.56375,-0.815 -5.32,-0.37375"
       style="fill:#f03191;fill-opacity:1;fill-rule:nonzero;stroke:none"
       id="path1088"
       inkscape:connector-curvature="0" />
    <path
       d="m 718.65437,484.09988 c 0,2.47125 -2.0025,4.4725 -4.47,4.4725 -2.45625,0 -4.45125,-1.9825 -4.47125,-4.43125 l 0,-2.7875 1.365,0.6375 2.0375,-0.60875 0,2.81 c 0,0.58375 0.47375,1.0575 1.05875,1.0575 0.585,0 1.05875,-0.47375 1.05875,-1.0575 l 0,-2.865 3.42125,0 c 0,0 0,2.74125 0,2.7725 z m -10,-7.37 c -0.585,0 -1.05875,0.47375 -1.05875,1.05625 l -0.005,6.38 c -0.035,2.43875 -2.0175,4.40625 -4.46625,4.40625 -2.4675,0 -4.47,-2.00125 -4.47,-4.4725 0,-0.0312 0,-2.7725 0,-2.7725 l 3.42125,0 0,2.73625 c 0,0.58625 0.47375,1.06 1.05875,1.06 0.585,0 1.05875,-0.47375 1.05875,-1.06 l 0,-6.4575 c 0.0863,-2.3925 2.04625,-4.30875 4.46125,-4.30875 2.4225,0 4.39,1.93125 4.46125,4.335 l 0,1.41375 -2.0375,0.60875 -1.365,-0.6375 0,-1.23125 c 0,-0.5825 -0.47375,-1.05625 -1.05875,-1.05625 z m -20,-15.79625 0,40 40,0 0,-40 -40,0"
       style="fill:#f03c1f;fill-opacity:1;fill-rule:nonzero;stroke:none"
       id="path1090"
       inkscape:connector-curvature="0" />
    <path
       d="m 236.73937,490.93363 c 0,-8.91375 -7.2125,-16.1675 -16.0787,-16.1675 l 0,-3.8325 c 10.98,0 19.9112,8.9725 19.9112,20 l -3.8325,0 z m -6.77,-0.005 c 0,-2.505 -0.9712,-4.85875 -2.7312,-6.62625 -1.7563,-1.7675 -4.095,-2.73875 -6.5825,-2.73875 l 0,-3.8325 c 7.2475,0 13.1462,5.92 13.1462,13.1975 l -3.8325,0 z m -6.6625,-0.0175 c -1.4662,0 -2.6537,-1.18875 -2.6537,-2.65625 0,-1.46375 1.1875,-2.65375 2.6537,-2.65375 1.4675,0 2.6563,1.19 2.6563,2.65375 0,1.4675 -1.1888,2.65625 -2.6563,2.65625 z m -12.695,-29.9775 0,40 40,0 0,-40 -40,0"
       style="fill:#f47016;fill-opacity:1;fill-rule:nonzero;stroke:none"
       id="path1092"
       inkscape:connector-curvature="0" />
    <path
       d="m 286.97317,483.39238 c -2.3675,-0.0275 -4.3738,1.49625 -4.3738,3.25875 0,1.8025 1.71,3.29875 4.0775,3.29875 3.3288,0 4.4888,-1.40625 4.4888,-3.20625 0,-0.21625 -0.028,-0.42875 -0.076,-0.63375 -0.2612,-1.02125 -1.2962,-1.5775 -2.5825,-2.47125 -0.4662,-0.15125 -0.9812,-0.24125 -1.5337,-0.24625"
       style="fill:#de3f3b;fill-opacity:1;fill-rule:nonzero;stroke:none"
       id="path1094"
       inkscape:connector-curvature="0" />
    <path
       d="m 300.35937,475.28613 -2.72,0 0,2.72 -1.35875,0 0,-2.72 -2.71875,0 0,-1.35875 2.71875,0 0,-2.72 1.35875,0 0,2.72 2.72,0 0,1.35875 z m -8.46375,0.36375 c 0,1.30375 -0.72125,2.35375 -1.74125,3.1525 -0.9962,0.77625 -1.1837,1.10375 -1.1837,1.7625 0,0.56375 1.1887,1.40625 1.7362,1.81625 1.9025,1.42625 2.28875,2.325 2.28875,4.11125 0,2.2275 -2.40125,4.44375 -6.30495,4.44375 -3.4263,0 -6.3163,-1.39375 -6.3163,-3.62 0,-2.26375 2.3975,-4.62 5.8225,-4.62 0.3738,0 0.715,-0.01 1.07,-0.01 -0.4687,-0.45625 -0.8475,-0.84875 -0.8475,-1.5375 0,-0.4075 0.1288,-0.79875 0.3125,-1.15 -0.1862,0.015 -0.3762,0.025 -0.5712,0.025 -2.8138,0 -4.4525,-1.97625 -4.4525,-4.45625 0,-2.42625 2.4937,-4.63125 5.485,-4.63125 1.5412,0 5.89495,0 5.89495,0 l -1.3175,1.38125 -1.54745,0 c 1.0925,0.625 1.67245,1.915 1.67245,3.3325 z m -21.52875,-14.71625 0,40 40,0 0,-40 -40,0"
       style="fill:#de3f3b;fill-opacity:1;fill-rule:nonzero;stroke:none"
       id="path1096"
       inkscape:connector-curvature="0" />
    <path
       d="m 286.30567,471.89363 c -1.5875,-0.0462 -2.655,1.55 -2.3788,3.6375 0.2738,2.085 1.7838,3.5425 3.3725,3.59125 1.5888,0.0462 2.5013,-1.29625 2.2275,-3.38125 -0.2737,-2.0875 -1.6325,-3.79875 -3.2212,-3.8475"
       style="fill:#de3f3b;fill-opacity:1;fill-rule:nonzero;stroke:none"
       id="path1098"
       inkscape:connector-curvature="0" />
    <path
       d="m 352.18812,485.38988 c -1.24,0 -2.4075,-0.6725 -2.80625,-1.43375 0,0 -0.6675,2.64625 -0.8075,3.15875 -0.49875,1.805 -1.9625,3.61125 -2.075,3.7575 -0.0788,0.105 -0.255,0.0712 -0.2725,-0.0638 -0.0325,-0.23125 -0.40625,-2.50875 0.0337,-4.3675 0.22125,-0.9325 1.47875,-6.26 1.47875,-6.26 0,0 -0.3675,-0.73125 -0.3675,-1.81625 0,-1.70375 0.9875,-2.97375 2.21625,-2.97375 1.045,0 1.5475,0.78375 1.5475,1.72375 0,1.0525 -0.6675,2.6225 -1.0125,4.0775 -0.28875,1.21875 0.61,2.2125 1.8125,2.2125 2.17625,0 3.6425,-2.79625 3.6425,-6.10625 0,-2.52 -1.695,-4.405 -4.78,-4.405 -3.48375,0 -5.65625,2.6 -5.65625,5.50375 0,1.00125 0.29625,1.70625 0.75875,2.2525 0.2125,0.2525 0.24125,0.3525 0.165,0.64 -0.0563,0.2125 -0.18125,0.72 -0.235,0.9225 -0.075,0.29125 -0.3125,0.39375 -0.575,0.28625 -1.605,-0.65375 -2.3525,-2.4125 -2.3525,-4.3875 0,-3.26375 2.7525,-7.1775 8.21125,-7.1775 4.38625,0 7.2725,3.17375 7.2725,6.5825 0,4.50625 -2.50625,7.87375 -6.19875,7.87375 z m -22.065,-24.45625 0,40 40,0 0,-40 -40,0"
       style="fill:#cd1e25;fill-opacity:1;fill-rule:nonzero;stroke:none"
       id="path1100"
       inkscape:connector-curvature="0" />
    <path
       d="m 594.70812,485.36988 c -2.44875,0 -4.435,-1.9875 -4.435,-4.43625 0,-2.44875 1.98625,-4.43375 4.435,-4.43375 2.45,0 4.43625,1.985 4.43625,4.43375 0,2.44875 -1.98625,4.43625 -4.43625,4.43625 z m -11.12875,0 c -2.45,0 -4.435,-1.9875 -4.435,-4.43625 0,-2.44875 1.985,-4.43375 4.435,-4.43375 2.44875,0 4.43625,1.985 4.43625,4.43375 0,2.44875 -1.9875,4.43625 -4.43625,4.43625 z m -14.435,-24.43625 0,40 40,0 0,-40 -40,0"
       style="fill:#ed1491;fill-opacity:1;fill-rule:nonzero;stroke:none"
       id="path1102"
       inkscape:connector-curvature="0" />
    <path
       d="m 539.28812,476.39738 c -1.11875,6.29625 -7.36125,11.62625 -9.24,12.845 -1.87875,1.2175 -3.5925,-0.48625 -4.2125,-1.7775 -0.7125,-1.47 -2.84375,-9.44125 -3.4025,-10.1025 -0.5575,-0.66 -2.23375,0.66125 -2.23375,0.66125 l -0.81125,-1.065 c 0,0 3.40125,-4.0625 5.98875,-4.5725 2.745,-0.5375 2.74125,4.21625 3.4025,6.85375 0.6375,2.55375 1.0675,4.01375 1.62375,4.01375 0.56,0 1.625,-1.42375 2.7925,-3.60625 1.1675,-2.1825 -0.05,-4.11375 -2.335,-2.7425 0.9125,-5.4825 9.54375,-6.80125 8.4275,-0.5075 z m -29.9,-15.46375 0,40 40,0 0,-40 -40,0"
       style="fill:#4ec0ee;fill-opacity:1;fill-rule:nonzero;stroke:none"
       id="path1104"
       inkscape:connector-curvature="0" />
    <path
       d="m 462.45312,482.75738 1.17875,0 0,5.86375 1.14125,0 0,-5.86375 1.18,0 0,-0.99875 -3.5,0 0,0.99875"
       style="fill:#ee2534;fill-opacity:1;fill-rule:nonzero;stroke:none"
       id="path1106"
       inkscape:connector-curvature="0" />
    <path
       d="m 469.45687,477.88738 c 0.155,0 0.27625,-0.0425 0.3675,-0.1275 0.0913,-0.085 0.1375,-0.205 0.1375,-0.35375 l 0,-3.0375 c 0,-0.1225 -0.0462,-0.22 -0.13875,-0.295 -0.0937,-0.0762 -0.215,-0.1125 -0.36625,-0.1125 -0.13875,0 -0.2525,0.0363 -0.34,0.1125 -0.085,0.075 -0.12875,0.1725 -0.12875,0.295 l 0,3.0375 c 0,0.15375 0.0412,0.27125 0.12125,0.35375 0.0813,0.0875 0.19625,0.1275 0.3475,0.1275"
       style="fill:#ee2534;fill-opacity:1;fill-rule:nonzero;stroke:none"
       id="path1108"
       inkscape:connector-curvature="0" />
    <path
       d="m 471.91437,487.43488 c 0,0.16375 -0.0288,0.27875 -0.0863,0.35 -0.0588,0.0725 -0.14875,0.10875 -0.27375,0.10875 -0.085,0 -0.165,-0.0187 -0.24375,-0.0562 -0.0775,-0.0337 -0.15875,-0.0975 -0.24,-0.1775 l 0,-3.155 c 0.0687,-0.07 0.1375,-0.12125 0.20875,-0.15625 0.07,-0.0312 0.1425,-0.0488 0.21375,-0.0488 0.13625,0 0.2425,0.045 0.315,0.1325 0.0725,0.0875 0.10625,0.2175 0.10625,0.39 l 0,2.6125 z m 0.0562,-3.9375 c -0.1575,0 -0.3125,0.0387 -0.4675,0.12 -0.15125,0.08 -0.29625,0.2 -0.4325,0.35125 l 0,-2.21 -1.02375,0 0,6.8625 1.02375,0 0,-0.3875 c 0.13125,0.15625 0.2775,0.26875 0.4325,0.34125 0.15375,0.0762 0.33,0.11 0.52875,0.11 0.29875,0 0.53,-0.0925 0.6875,-0.285 0.16,-0.19375 0.2375,-0.46625 0.2375,-0.8225 l 0,-2.81125 c 0,-0.415 -0.0825,-0.73 -0.2525,-0.94625 -0.16875,-0.215 -0.4125,-0.3225 -0.73375,-0.3225"
       style="fill:#ee2534;fill-opacity:1;fill-rule:nonzero;stroke:none"
       id="path1110"
       inkscape:connector-curvature="0" />
    <path
       d="m 468.27437,487.40363 c -0.095,0.11 -0.19875,0.2 -0.31375,0.27375 -0.11375,0.07 -0.20875,0.105 -0.28125,0.105 -0.0937,0 -0.16375,-0.025 -0.2075,-0.0813 -0.0413,-0.0537 -0.0625,-0.13875 -0.0625,-0.25875 l 0,-3.88375 -1.0125,0 0,4.2325 c 0,0.30375 0.06,0.525 0.1775,0.67625 0.12,0.15375 0.29375,0.2275 0.53,0.2275 0.18875,0 0.385,-0.0513 0.58625,-0.16125 0.20375,-0.1075 0.3975,-0.26375 0.58375,-0.46875 l 0,0.55625 1.0125,0 0,-5.0625 -1.0125,0 0,3.845"
       style="fill:#ee2534;fill-opacity:1;fill-rule:nonzero;stroke:none"
       id="path1112"
       inkscape:connector-curvature="0" />
    <path
       d="m 479.63312,487.06113 c 0,2.0175 -1.63625,3.655 -3.65375,3.655 l -12.69375,0 c -2.0175,0 -3.6525,-1.6375 -3.6525,-3.655 l 0,-2.93625 c 0,-2.01625 1.635,-3.655 3.6525,-3.655 l 12.69375,0 c 2.0175,0 3.65375,1.63875 3.65375,3.655 l 0,2.93625 z m -14.92,-15.9075 0.8325,3.0225 0.08,0 0.795,-3.0225 1.3025,0 -1.4925,4.42375 0,3.135 -1.2825,0 0,-2.99625 -1.5275,-4.5625 1.2925,0 z m 3.1025,3.25625 c 0,-0.43125 0.15375,-0.77625 0.45875,-1.03 0.30625,-0.25625 0.72,-0.38375 1.23875,-0.38375 0.47,0 0.85625,0.135 1.15875,0.40375 0.3,0.26875 0.45,0.62 0.45,1.0425 l 0,2.88 c 0,0.47875 -0.1475,0.85 -0.44125,1.12375 -0.29625,0.27125 -0.7025,0.4075 -1.22,0.4075 -0.49875,0 -0.8975,-0.14125 -1.19625,-0.4225 -0.29875,-0.28125 -0.44875,-0.65625 -0.44875,-1.13 l 0,-2.89125 z m 4.23,-1.27375 1.1375,0 0,4.275 c 0,0.13125 0.0275,0.22625 0.0738,0.285 0.0462,0.0613 0.125,0.09 0.23125,0.09 0.0838,0 0.19125,-0.0387 0.31875,-0.11625 0.1275,-0.0813 0.24375,-0.17875 0.35,-0.30125 l 0,-4.2325 1.14,0 0,5.57625 -1.14,0 0,-0.6175 c -0.20875,0.22625 -0.42625,0.4025 -0.655,0.52 -0.2275,0.11625 -0.44625,0.18 -0.66,0.18 -0.265,0 -0.4625,-0.085 -0.59625,-0.25375 -0.1325,-0.16375 -0.2,-0.4125 -0.2,-0.745 l 0,-4.66 z m -22.4125,-12.2025 0,40 40,0 0,-40 -40,0"
       style="fill:#ee2534;fill-opacity:1;fill-rule:nonzero;stroke:none"
       id="path1114"
       inkscape:connector-curvature="0" />
    <path
       d="m 475.42562,485.42363 -0.895,0 0,-0.51 c 0,-0.2125 0.035,-0.36625 0.105,-0.455 0.0712,-0.095 0.18625,-0.14125 0.3475,-0.14125 0.15375,0 0.2675,0.0462 0.33625,0.14125 0.07,0.0888 0.10625,0.2425 0.10625,0.455 l 0,0.51 z m -0.4,-1.99 c -0.45375,0 -0.82125,0.13625 -1.1075,0.4125 -0.2875,0.27625 -0.43,0.6375 -0.43,1.075 l 0,2.2725 c 0,0.4875 0.1325,0.87125 0.39125,1.1475 0.26,0.28 0.6175,0.4175 1.07,0.4175 0.50375,0 0.88375,-0.13 1.135,-0.39125 0.25625,-0.26375 0.3825,-0.65375 0.3825,-1.17375 l 0,-0.25875 -1.04125,0 0,0.22875 c 0,0.29875 -0.035,0.49125 -0.1,0.57875 -0.0675,0.0888 -0.185,0.1325 -0.3525,0.1325 -0.16125,0 -0.27625,-0.0513 -0.34375,-0.15375 -0.065,-0.105 -0.0987,-0.29125 -0.0987,-0.5575 l 0,-0.95125 1.93625,0 0,-1.29125 c 0,-0.48125 -0.125,-0.8475 -0.37375,-1.10375 -0.24755,-0.25625 -0.6038,-0.38375 -1.06755,-0.38375"
       style="fill:#ee2534;fill-opacity:1;fill-rule:nonzero;stroke:none"
       id="path1116"
       inkscape:connector-curvature="0" />
    <path
       d="m 656.78937,486.28988 -2.01,2.87125 c 0,0 -0.35875,0.2975 -0.72125,0.2975 -0.36125,0 -0.77875,-0.55875 -0.77875,-0.55875 l -2.54,-4.2425 c 0,0 -0.28625,-0.62125 0.0513,-0.96 0.31125,-0.3125 0.77625,-0.19 0.77625,-0.19 l 4.75625,1.5275 c 0,0 0.68,0.125 0.6725,0.57375 -0.005,0.3175 -0.20625,0.68125 -0.20625,0.68125 z m -6.2275,-5.5325 2.6825,-4.21875 c 0,0 0.27625,-0.54125 0.72625,-0.505 0.4075,0.0337 0.60375,0.37125 0.60375,0.37125 l 2.2675,2.67125 c 0,0 0.1975,0.425 0.1075,0.77375 -0.0925,0.35125 -0.74,0.615 -0.74,0.615 l -4.745,1.38625 c 0,0 -0.67125,0.12 -0.91375,-0.2925 -0.225,-0.37875 0.0112,-0.80125 0.0112,-0.80125 z m -2.02125,10.1375 c -0.305,0.0875 -0.7075,0.005 -0.7075,0.005 l -3.32375,-1.05 c -0.2325,-0.1125 -0.39625,-0.27375 -0.495,-0.59375 -0.105,-0.34125 0.3075,-0.8975 0.3075,-0.8975 l 3.31125,-3.64625 c 0,0 0.5075,-0.45125 0.9325,-0.23125 0.3875,0.2 0.405,0.67625 0.405,0.67625 l -0.0762,4.93125 c 0,0 0.08,0.67875 -0.35375,0.80625 z m -7.62125,-6.44125 c -0.15375,-0.265 -0.11125,-0.85375 -0.11125,-0.85375 l 0.275,-3.39625 c 0.02,-0.22 0.2275,-0.46875 0.46125,-0.6075 0.30375,-0.18125 0.93125,0.0775 0.93125,0.0775 l 4.23375,2.14125 c 0,0 0.64,0.3125 0.62625,0.8325 -0.0187,0.68875 -0.35625,0.70125 -0.5475,0.83 l -4.9425,1.09375 c 0,0 -0.71125,0.26375 -0.92625,-0.1175 z m 2.08375,-11.535 c 0.20125,-0.3225 0.58625,-0.44875 0.58625,-0.44875 l 3.94,-1.465 c 0.1675,-0.025 0.3425,-0.21 0.93,0.14625 0.375,0.225 0.45875,1.06 0.45875,1.06 l 0.0375,6.755 c 0,0 -0.0888,0.81 -0.64625,0.9475 -0.515,0.12625 -0.92,-0.29125 -0.92,-0.29125 l -4.09375,-5.58125 c 0,0 -0.57875,-0.66625 -0.2925,-1.1225 z m -14.105,-11.985 0,40 40,0 0,-40 -40,0"
       style="fill:#cb3023;fill-opacity:1;fill-rule:nonzero;stroke:none"
       id="path1118"
       inkscape:connector-curvature="0" />
  </g>
</svg>
