<?xml version="1.0" encoding="utf-8"?>
<!-- Generator: Adobe Illustrator 15.1.0, SVG Export Plug-In  -->
<!DOCTYPE svg PUBLIC "-//W3C//DTD SVG 1.1//EN" "http://www.w3.org/Graphics/SVG/1.1/DTD/svg11.dtd" [
	<!ENTITY ns_flows "http://ns.adobe.com/Flows/1.0/">
]>
<svg version="1.1"
	 xmlns="http://www.w3.org/2000/svg" xmlns:xlink="http://www.w3.org/1999/xlink" xmlns:a="http://ns.adobe.com/AdobeSVGViewerExtensions/3.0/"
	 x="0px" y="0px" width="43px" height="43px" viewBox="0 0 43 43" enable-background="new 0 0 43 43" xml:space="preserve">
<defs>
</defs>
<rect fill="#D83275" width="43" height="43"/>
<path fill="#FFFFFF" d="M28.479,34.258h-13.96c-3.185,0-5.776-2.592-5.776-5.781V14.519c0-3.186,2.591-5.776,5.776-5.776h13.96
	c3.186,0,5.779,2.59,5.779,5.776v13.958C34.258,31.666,31.664,34.258,28.479,34.258 M14.519,11.284c-1.785,0-3.239,1.45-3.239,3.235
	v13.958c0,1.791,1.454,3.242,3.239,3.242h13.96c1.783,0,3.236-1.451,3.236-3.242V14.519c0-1.785-1.453-3.235-3.236-3.235H14.519z
	 M21.498,28.166c-3.635,0-6.592-2.955-6.592-6.593c0-3.635,2.958-6.593,6.592-6.593c3.637,0,6.596,2.958,6.596,6.593
	C28.094,25.211,25.135,28.166,21.498,28.166 M21.498,17.52c-2.237,0-4.053,1.82-4.053,4.053c0,2.236,1.816,4.054,4.053,4.054
	c2.239,0,4.059-1.818,4.059-4.054C25.557,19.34,23.736,17.52,21.498,17.52 M28.342,13.358c-0.922,0-1.67,0.747-1.67,1.675
	c0,0.923,0.748,1.674,1.67,1.674c0.924,0,1.68-0.751,1.68-1.674C30.021,14.105,29.266,13.358,28.342,13.358"/>
</svg>
